<svg xmlns="http://www.w3.org/2000/svg" viewBox="0 0 100 100" height="100" width="100">
  <path fill="#fefdef"
    d="M69,82H31c-7.18,0-13-5.82-13-13V31c0-7.18,5.82-13,13-13h38c7.18,0,13,5.82,13,13v38	C82,76.18,76.18,82,69,82z" />
  <path fill="#1f212b"
    d="M66.5,78h-33C27.159,78,22,72.841,22,66.5v-33C22,27.159,27.159,22,33.5,22h33	c0.353,0,0.701,0.021,1.046,0.053c0.275,0.025,0.477,0.269,0.452,0.544c-0.025,0.274-0.258,0.476-0.544,0.452	C67.139,23.02,66.822,23,66.5,23h-33C27.71,23,23,27.71,23,33.5v33C23,72.29,27.71,77,33.5,77h33C72.29,77,77,72.29,77,66.5v-17	c0-0.276,0.224-0.5,0.5-0.5s0.5,0.224,0.5,0.5v17C78,72.841,72.841,78,66.5,78z M77.5,40c-0.276,0-0.5-0.224-0.5-0.5v-2	c0-0.276,0.224-0.5,0.5-0.5s0.5,0.224,0.5,0.5v2C78,39.776,77.776,40,77.5,40z M77.5,47c-0.276,0-0.5-0.224-0.5-0.5v-4	c0-0.276,0.224-0.5,0.5-0.5s0.5,0.224,0.5,0.5v4C78,46.776,77.776,47,77.5,47z" />
  <path fill="#1f212b"
    d="M69,83H31c-7.72,0-14-6.28-14-14V31c0-7.72,6.28-14,14-14h38c7.72,0,14,6.28,14,14v38	C83,76.72,76.72,83,69,83z M31,19c-6.617,0-12,5.383-12,12v38c0,6.617,5.383,12,12,12h38c6.617,0,12-5.383,12-12V31	c0-6.617-5.383-12-12-12H31z" />
  <path fill="#eddc67"
    d="M33.701,30.705l-3.182,3.182c-0.879,0.879-0.945,2.237-0.147,3.035l32.707,32.707 c0.797,0.797,2.156,0.731,3.035-0.147l3.182-3.182c0.879-0.879,0.945-2.237,0.147-3.035L36.736,30.557 C35.938,29.76,34.58,29.826,33.701,30.705z M35.999,36.185c-0.391,0.391-1.024,0.391-1.414,0s-0.391-1.024,0-1.414 c0.391-0.391,1.024-0.391,1.414,0C36.39,35.161,36.39,35.794,35.999,36.185z" />
  <path fill="#1f212b"
    d="M35.292,30.649c0.512,0,1.024,0.195,1.414,0.586l32.059,32.059c0.781,0.781,0.781,2.047,0,2.828 l-2.828,2.828c-0.391,0.391-0.902,0.586-1.414,0.586s-1.024-0.195-1.414-0.586L31.049,36.892c-0.781-0.781-0.781-2.047,0-2.828 l2.828-2.828C34.268,30.844,34.78,30.649,35.292,30.649 M35.292,29.649c-0.801,0-1.555,0.312-2.121,0.879l-2.828,2.828 c-0.567,0.567-0.879,1.32-0.879,2.121c0,0.801,0.312,1.555,0.879,2.121l32.059,32.059c0.567,0.567,1.32,0.879,2.121,0.879 c0.801,0,1.555-0.312,2.121-0.879l2.828-2.828c0.567-0.567,0.879-1.32,0.879-2.121s-0.312-1.555-0.879-2.121L37.413,30.528 C36.847,29.961,36.093,29.649,35.292,29.649L35.292,29.649z" />
  <path fill="#1f212b"
    d="M35.292,34.478c0.256,0,0.512,0.098,0.707,0.293c0.391,0.391,0.391,1.024,0,1.414 c-0.195,0.195-0.451,0.293-0.707,0.293s-0.512-0.098-0.707-0.293c-0.391-0.391-0.391-1.024,0-1.414 C34.78,34.575,35.036,34.478,35.292,34.478 M35.292,33.478c-0.534,0-1.036,0.208-1.414,0.586c-0.78,0.78-0.78,2.049,0,2.828 c0.378,0.378,0.88,0.586,1.414,0.586s1.036-0.208,1.414-0.586c0.78-0.78,0.78-2.049,0-2.828 C36.328,33.686,35.826,33.478,35.292,33.478L35.292,33.478z" />
  <path fill="#1f212b"
    d="M40.242,38.099c-0.128,0-0.256-0.049-0.354-0.146c-0.195-0.195-0.195-0.512,0-0.707l1.414-1.415 c0.195-0.195,0.512-0.195,0.707,0s0.195,0.512,0,0.707l-1.414,1.415C40.498,38.05,40.37,38.099,40.242,38.099z" />
  <path fill="#1f212b"
    d="M41.951,42.637c-0.128,0-0.256-0.049-0.354-0.146c-0.195-0.195-0.195-0.512,0-0.707l2.828-2.829 c0.195-0.195,0.512-0.195,0.707,0s0.195,0.512,0,0.707l-2.828,2.829C42.207,42.588,42.079,42.637,41.951,42.637z" />
  <path fill="#1f212b"
    d="M46.489,44.346c-0.128,0-0.256-0.049-0.354-0.146c-0.195-0.195-0.195-0.512,0-0.707l1.414-1.414 c0.195-0.195,0.512-0.195,0.707,0s0.195,0.512,0,0.707l-1.414,1.414C46.745,44.297,46.617,44.346,46.489,44.346z" />
  <path fill="#1f212b"
    d="M48.198,48.884c-0.128,0-0.256-0.049-0.354-0.146c-0.195-0.195-0.195-0.512,0-0.707l2.829-2.829 c0.195-0.195,0.512-0.195,0.707,0s0.195,0.512,0,0.707l-2.829,2.829C48.454,48.835,48.326,48.884,48.198,48.884z" />
  <path fill="#1f212b"
    d="M52.736,50.593c-0.128,0-0.256-0.049-0.354-0.146c-0.195-0.195-0.195-0.512,0-0.707l1.414-1.414 c0.195-0.195,0.512-0.195,0.707,0s0.195,0.512,0,0.707l-1.414,1.414C52.992,50.544,52.864,50.593,52.736,50.593z" />
  <path fill="#1f212b"
    d="M54.445,55.13c-0.128,0-0.256-0.049-0.354-0.146c-0.195-0.195-0.195-0.512,0-0.707l2.829-2.828 c0.195-0.195,0.512-0.195,0.707,0s0.195,0.512,0,0.707l-2.829,2.828C54.701,55.082,54.573,55.13,54.445,55.13z" />
  <path fill="#1f212b"
    d="M58.982,56.84c-0.128,0-0.256-0.049-0.354-0.146c-0.195-0.195-0.195-0.512,0-0.707l1.415-1.415 c0.195-0.195,0.512-0.195,0.707,0s0.195,0.512,0,0.707l-1.415,1.415C59.238,56.791,59.11,56.84,58.982,56.84z" />
  <path fill="#1f212b"
    d="M60.692,61.377c-0.128,0-0.256-0.049-0.354-0.146c-0.195-0.195-0.195-0.512,0-0.707l2.828-2.829 c0.195-0.195,0.512-0.195,0.707,0s0.195,0.512,0,0.707l-2.828,2.829C60.948,61.329,60.82,61.377,60.692,61.377z" />
  <path fill="#1f212b"
    d="M65.229,63.087c-0.128,0-0.256-0.049-0.354-0.146c-0.195-0.195-0.195-0.512,0-0.707l1.414-1.415 c0.195-0.195,0.512-0.195,0.707,0s0.195,0.512,0,0.707l-1.414,1.415C65.485,63.038,65.357,63.087,65.229,63.087z" />
  <g>
    <path fill="#fed5b3"
      d="M39.885,65.046l-7.205,3.799c-0.897,0.391-1.917-0.629-1.526-1.526l3.799-7.205 c0.372-0.853,0.894-1.62,1.543-2.269l10.481-10.481l15.146-15.146c1.394-1.394,3.791-1.258,5.353,0.304v0v0 c1.562,1.562,1.698,3.959,0.304,5.353L52.636,53.021L42.155,63.502C41.505,64.151,40.738,64.673,39.885,65.046z" />
    <path fill="#78a2d2"
      d="M67.478,32.522c-1.562-1.562-3.959-1.698-5.353-0.304L46.979,47.364l-9.872,9.872L37.21,60.3 l2.267,0.214l0.216,2.265l2.904,0.281l10.039-10.039l15.146-15.146C69.177,36.48,69.04,34.084,67.478,32.522z" />
    <path fill="#b3b2c3"
      d="M32.762,64.273l-1.606,3.046c-0.391,0.896,0.629,1.917,1.525,1.525l3.046-1.606L32.762,64.273z" />
    <path fill="#f15b6c"
      d="M67.478,32.522c-1.562-1.562-3.959-1.698-5.353-0.304l-2.072,2.072l5.657,5.657l2.072-2.072 C69.177,36.48,69.04,34.084,67.478,32.522z" />
    <rect width="8" height="8" x="56.407" y="35.593" fill="#b3b2c3" transform="rotate(45.001 60.408 39.592)" />
    <path fill="#1f212b"
      d="M64.65,31.85c0.896,0,1.791,0.342,2.475,1.025v0c1.367,1.367,1.367,3.583,0,4.95L52.276,52.674 L42.022,62.927c-0.636,0.636-1.375,1.161-2.186,1.551l-6.907,3.927c-0.147,0.071-0.296,0.103-0.439,0.103 c-0.683,0-1.236-0.733-0.896-1.438l3.927-6.907c0.39-0.811,0.915-1.55,1.551-2.186l10.253-10.253l14.849-14.849 C62.858,32.192,63.754,31.85,64.65,31.85 M64.65,30.85c-1.202,0-2.332,0.468-3.182,1.318L46.619,47.017L36.366,57.27 c-0.709,0.709-1.291,1.526-1.73,2.428l-3.91,6.878l-0.017,0.03l-0.015,0.031c-0.301,0.624-0.262,1.344,0.104,1.926 c0.367,0.584,1.016,0.946,1.694,0.946c0.301,0,0.594-0.068,0.872-0.202l0.031-0.015l0.03-0.017l6.878-3.91 c0.902-0.439,1.719-1.02,2.428-1.73l10.253-10.253l14.849-14.849c0.85-0.85,1.318-1.98,1.318-3.182 c0-1.202-0.468-2.332-1.318-3.182C66.982,31.318,65.852,30.85,64.65,30.85L64.65,30.85z" />
    <rect width="1" height="8" x="62.736" y="32.764" fill="#1f212b" transform="rotate(-45.001 63.236 36.765)" />
    <rect width="1" height="8" x="60.615" y="34.886" fill="#1f212b" transform="rotate(-45.001 61.114 38.886)" />
    <path fill="#1f212b"
      d="M62.529,43.628c-0.128,0-0.256-0.049-0.354-0.146L58.993,40.3c-0.195-0.195-0.195-0.512,0-0.707 s0.512-0.195,0.707,0l3.182,3.182c0.195,0.195,0.195,0.512,0,0.707C62.785,43.58,62.657,43.628,62.529,43.628z" />
    <path fill="#1f212b"
      d="M57.933,39.032c-0.128,0-0.256-0.049-0.354-0.146l-1.061-1.061c-0.195-0.195-0.195-0.512,0-0.707 s0.512-0.195,0.707,0l1.061,1.061c0.195,0.195,0.195,0.512,0,0.707C58.188,38.983,58.061,39.032,57.933,39.032z" />
    <rect width="1" height="8" x="57.079" y="38.421" fill="#1f212b" transform="rotate(-45.001 57.579 42.422)" />
    <path fill="#1f212b"
      d="M42.597,63.56c-0.016,0-0.032-0.001-0.049-0.002l-2.904-0.281c-0.238-0.023-0.427-0.212-0.449-0.45 l-0.177-1.854l-1.855-0.176c-0.25-0.023-0.444-0.229-0.453-0.481l-0.103-3.063c-0.009-0.276,0.207-0.507,0.483-0.516 c0.258-0.019,0.507,0.207,0.516,0.483l0.088,2.624l1.829,0.173c0.239,0.022,0.428,0.211,0.451,0.45l0.177,1.854l2.494,0.241 c0.274,0.026,0.476,0.271,0.449,0.546C43.069,63.367,42.852,63.56,42.597,63.56z" />
    <rect width="5" height="1" x="31.744" y="65.256" fill="#1f212b" transform="rotate(45.001 34.245 65.756)" />
  </g>
</svg>
